<svg t="1730718535177" class="icon" viewBox="0 0 1024 1024" version="1.1" xmlns="http://www.w3.org/2000/svg" p-id="10613" width="256" height="256"><path d="M505.8816 293.376v236.3648a23.3728 23.3728 0 0 1 23.3728 23.3728 23.7568 23.7568 0 0 1-0.9984 6.784l202.5472 123.1872a259.7888 259.7888 0 0 0-224.9216-389.7088z" fill="#004ED8" p-id="10614"></path><path d="M512 870.4a314.88 314.88 0 1 1 314.88-314.88 315.2128 315.2128 0 0 1-314.88 314.88z m0-610.048A295.1936 295.1936 0 1 0 807.1936 555.52 295.5264 295.5264 0 0 0 512 260.352z" p-id="10615"></path><path d="M406.1696 388.608a9.856 9.856 0 0 1-8.6784-5.12L373.76 339.1232a9.856 9.856 0 1 1 17.3312-9.344l23.6288 44.3392a9.8304 9.8304 0 0 1-8.6528 14.4896zM331.4432 462.8224a9.856 9.856 0 0 1-5.12-1.4592l-42.8288-26.4448a9.8304 9.8304 0 0 1 10.24-16.7424l42.8032 26.4448a9.8304 9.8304 0 0 1-5.12 18.2016zM303.872 564.4544h-0.3072l-50.304-1.5104a9.8304 9.8304 0 1 1 0.5888-19.6608l50.304 1.4848a9.856 9.856 0 0 1-0.2816 19.6864zM286.464 690.1248a9.856 9.856 0 0 1-4.6592-18.5088l44.3136-23.936a9.8304 9.8304 0 1 1 9.3184 17.3056l-44.3136 23.8848a9.8304 9.8304 0 0 1-4.6592 1.2544zM378.5472 783.7952a9.856 9.856 0 0 1-8.3712-15.0272l26.4448-42.8288a9.8304 9.8304 0 1 1 16.7424 10.24l-26.4448 42.8288a9.8304 9.8304 0 0 1-8.3712 4.7872zM505.1392 818.8672h-0.3072a9.8048 9.8048 0 0 1-9.5232-10.112l1.4848-50.304a9.8304 9.8304 0 1 1 19.6608 0.5632l-1.4848 50.3296a9.8304 9.8304 0 0 1-9.8304 9.5232zM632.32 785.92a9.7792 9.7792 0 0 1-8.6528-5.12l-23.8848-44.3136a9.856 9.856 0 0 1 17.3312-9.344l23.8592 44.3136A9.8304 9.8304 0 0 1 632.32 785.92zM725.9392 693.76a9.9328 9.9328 0 0 1-5.12-1.4592l-42.8288-26.4448a9.8304 9.8304 0 0 1 10.24-16.7424l42.8288 26.4448a9.8304 9.8304 0 0 1-5.12 18.2016zM761.0368 567.2704h-0.3072l-50.304-1.5104a9.8304 9.8304 0 1 1 0.5888-19.6608l50.304 1.4848a9.8304 9.8304 0 0 1-0.2816 19.6608zM683.8016 463.9744a9.8304 9.8304 0 0 1-4.6592-18.4832l44.3136-23.8592a9.8304 9.8304 0 1 1 9.3184 17.3056l-44.3136 23.8592a9.5488 9.5488 0 0 1-4.6592 1.1776zM609.5872 389.2736a9.8304 9.8304 0 0 1-8.3712-15.0016l26.4448-42.8288a9.8304 9.8304 0 1 1 16.7424 10.24l-26.4448 42.8288a9.856 9.856 0 0 1-8.3712 4.7616zM507.9808 361.6768h-0.3072a9.8304 9.8304 0 0 1-9.5488-10.112l1.5104-50.3296a9.728 9.728 0 0 1 10.24-9.5232 9.8304 9.8304 0 0 1 9.5488 10.24l-1.5104 50.3296a9.8048 9.8048 0 0 1-9.9328 9.3952z" p-id="10616"></path><path d="M406.1696 388.608a9.856 9.856 0 0 1-8.6784-5.12L373.76 339.1232a9.856 9.856 0 1 1 17.3312-9.344l23.6288 44.3392a9.8304 9.8304 0 0 1-8.6528 14.4896zM505.8816 586.24a33.28 33.28 0 1 1 33.28-33.28 33.28 33.28 0 0 1-33.28 33.28z m0-46.7712a13.5424 13.5424 0 1 0 13.5424 13.5424 13.568 13.568 0 0 0-13.5424-13.44z" p-id="10617"></path><path d="M524.0832 548.3008a9.856 9.856 0 0 1-6.9376-16.8192l131.6864-131.2768a9.8304 9.8304 0 0 1 13.8752 13.952l-131.6864 131.2768a9.8816 9.8816 0 0 1-6.9376 2.8672zM488.6016 260.352a9.8304 9.8304 0 0 1-9.8816-9.8304V212.864a9.856 9.856 0 0 1 19.6864 0v37.6576a9.8304 9.8304 0 0 1-9.8048 9.8304zM535.3984 260.352a9.8304 9.8304 0 0 1-9.856-9.8304V212.864a9.856 9.856 0 0 1 19.6864 0v37.6576a9.8304 9.8304 0 0 1-9.8304 9.8304z" p-id="10618"></path><path d="M617.3952 222.72h-210.7904a9.8304 9.8304 0 0 1-9.8048-9.856V163.4304a9.8304 9.8304 0 0 1 9.8048-9.8304h210.7904a9.8304 9.8304 0 0 1 9.8048 9.8304v49.4336a9.8304 9.8304 0 0 1-9.8048 9.856z m-200.96-19.6608h191.1296V173.2864h-191.1296zM273.7664 367.872a9.7792 9.7792 0 0 1-6.9888-2.9184l-23.296-23.5776a9.8304 9.8304 0 1 1 14.0032-13.824l23.296 23.552a9.8304 9.8304 0 0 1-7.0144 16.768zM305.664 331.4176a9.7792 9.7792 0 0 1-6.9888-2.9184l-23.296-23.5776a9.8304 9.8304 0 0 1 14.0032-13.824l23.296 23.5776a9.8304 9.8304 0 0 1-7.0144 16.7424z" p-id="10619"></path><path d="M246.7072 340.48a45.0816 45.0816 0 1 1 45.056-45.056 45.1328 45.1328 0 0 1-45.056 45.056z m0-70.4512a25.3952 25.3952 0 1 0 25.3696 25.3952 25.4208 25.4208 0 0 0-25.3696-25.3696z" p-id="10620"></path></svg>